
	<svg xmlns="http://www.w3.org/2000/svg" xmlns:xlink="http://www.w3.org/1999/xlink" version="1.1" width="128" height="128" viewBox="0 0 100 100">


		<defs>
			<linearGradient id="Gradient_2" gradientUnits="userSpaceOnUse" x1="46" y1="91" x2="46" y2="0" spreadMethod="pad">
<stop offset="0%" stop-color="#FFFFFF" stop-opacity="0.4"/>
<stop offset="100%" stop-color="#FFFFFF" stop-opacity="0.2"/>
</linearGradient><linearGradient id="Gradient_3" gradientUnits="userSpaceOnUse" x1="28" y1="56" x2="28" y2="0" spreadMethod="pad">
<stop offset="0%" stop-color="#FFFFFF" stop-opacity="0.3"/>
<stop offset="100%" stop-color="#FFFFFF" stop-opacity="0.5"/>
</linearGradient><linearGradient id="Gradient_4" gradientUnits="userSpaceOnUse" x1="62" y1="81" x2="100" y2="81" spreadMethod="pad">
<stop offset="0%" stop-color="#FFFFFF" stop-opacity="0.3"/>
<stop offset="100%" stop-color="#FFFFFF" stop-opacity="0.6"/>
</linearGradient><linearGradient id="Gradient_5" gradientUnits="userSpaceOnUse" x1="27" y1="63" x2="100" y2="63" spreadMethod="pad">
<stop offset="0%" stop-color="#FFFFFF" stop-opacity="0.2"/>
<stop offset="100%" stop-color="#FFFFFF" stop-opacity="0.4"/>
</linearGradient><linearGradient id="Gradient_6" gradientUnits="userSpaceOnUse" x1="50" y1="100" x2="50" y2="0" spreadMethod="pad">
<stop offset="0%" stop-color="#FFFFFF" stop-opacity="0.5"/>
<stop offset="100%" stop-color="#FFFFFF" stop-opacity="0.8"/>
</linearGradient><g id="background">
<path fill="url(#background-gradient)" stroke="none" d=" M 99.75 7.9 Q 99.75 4.75 97.5 2.5 95.25 0.25 92.1 0.25 L 79.95 0.25 80.05 0.3 79.9 0.25 9.2 0.25 9.45 0.45 9.15 0.25 7.9 0.25 Q 4.75 0.25 2.5 2.5 0.25 4.75 0.25 7.9 L 0.25 62.05 0.35 62.25 0.25 62.15 0.25 92.1 Q 0.25 95.25 2.5 97.5 4.75 99.75 7.9 99.75 L 37.85 99.75 37.8 99.65 37.95 99.75 92.1 99.75 Q 95.25 99.75 97.5 97.5 99.75 95.25 99.75 92.1 L 99.75 90.85 99.5 90.55 99.75 90.8 99.75 20.1 99.65 19.95 99.75 20.05 99.75 7.9 Z"/>
</g><g id="middle-1">
<path fill="url(#Gradient_2)" stroke="none" d=" M 0.25 55.4 L 0.25 90.8 90.8 0.25 55.45 0.25 0.25 55.4 Z"/>

<path fill="url(#Gradient_3)" stroke="none" d=" M 1.5 18.8 L 0.25 20.1 0.25 55.4 55.45 0.25 20.1 0.25 1.5 18.8 Z"/>

<path fill="#FFFFFF" fill-opacity="0.10196078431372549" stroke="none" d=" M 7.9 0.25 Q 4.75 0.25 2.5 2.5 0.25 4.75 0.25 7.9 L 0.25 20.05 1.5 18.8 20.1 0.25 7.9 0.25 Z"/>

<path fill="url(#Gradient_4)" stroke="none" d=" M 97.5 97.5 Q 99.75 95.25 99.75 92.1 L 99.75 62.15 62.15 99.75 92.1 99.75 Q 95.25 99.75 97.5 97.5 Z"/>

<path fill="url(#Gradient_5)" stroke="none" d=" M 99.75 62.05 L 99.75 26.65 26.7 99.75 62.05 99.75 99.75 62.05 Z"/>

<path fill="url(#Gradient_6)" stroke="none" d=" M 99.75 7.9 Q 99.75 4.75 97.5 2.5 95.25 0.25 92.1 0.25 L 90.85 0.25 0.25 90.85 0.25 92.1 Q 0.25 95.25 2.5 97.5 4.75 99.75 7.9 99.75 L 26.7 99.75 99.75 26.65 99.75 7.9 Z"/>
</g><g id="middle-2">
<path fill="#FFFFFF" stroke="none" d=" M 97.7 2.3 Q 95.4 0 92.1 0 L 7.9 0 Q 4.6 0 2.3 2.3 0 4.6 0 7.9 L 0 92.1 Q 0 95.4 2.3 97.7 4.6 100 7.9 100 L 92.1 100 Q 95.4 100 97.7 97.7 100 95.4 100 92.1 L 100 7.9 Q 100 4.6 97.7 2.3 M 92.1 0.55 Q 95.15 0.55 97.3 2.7 99.45 4.85 99.45 7.9 L 99.45 19.4 85.8 5.7 91 0.55 92.1 0.55 M 90.15 0.55 L 85.35 5.3 80.6 0.55 90.15 0.55 M 85.35 6.15 L 99.45 20.25 99.45 26.55 85.35 40.65 68.15 23.4 85.35 6.15 M 85.8 41.1 L 99.45 27.4 99.45 54.75 85.8 41.1 M 99.45 55.65 L 99.45 61.95 85.35 76 68.15 58.8 85.35 41.5 99.45 55.65 M 99.45 90.1 L 85.8 76.5 99.45 62.75 99.45 90.1 M 85.35 76.9 L 99.45 91 99.45 92.1 Q 99.45 95.15 97.3 97.3 95.15 99.45 92.1 99.45 L 73.45 99.45 68.15 94.15 85.35 76.9 M 44.4 0.55 L 49.55 5.7 32.3 22.95 15.05 5.7 20.25 0.55 44.4 0.55 M 50.45 5.7 L 55.65 0.55 79.75 0.55 84.95 5.7 67.7 22.95 50.45 5.7 M 54.75 0.55 L 50 5.25 45.25 0.55 54.75 0.55 M 50.4 41.1 L 67.7 23.85 84.9 41.1 67.7 58.35 50.4 41.1 M 50 6.15 L 67.25 23.45 50 40.65 32.75 23.45 50 6.15 M 19.4 0.55 L 14.65 5.3 9.9 0.55 19.4 0.55 M 0.55 7.9 Q 0.55 4.85 2.7 2.7 4.85 0.55 7.9 0.55 L 9 0.55 14.2 5.7 0.55 19.4 0.55 7.9 M 0.55 20.25 L 14.65 6.15 31.9 23.4 14.65 40.65 0.55 26.55 0.55 20.25 M 0.55 27.4 L 14.2 41.1 0.55 54.75 0.55 27.4 M 15.1 41.1 L 32.35 23.85 49.6 41.1 32.3 58.35 15.1 41.1 M 0.55 61.95 L 0.55 55.65 14.65 41.5 31.9 58.8 14.65 76 0.55 61.95 M 0.55 91 L 14.65 76.9 31.9 94.15 26.55 99.45 7.9 99.45 Q 4.85 99.45 2.7 97.3 0.55 95.15 0.55 92.1 L 0.55 91 M 14.2 76.5 L 0.55 90.1 0.55 62.75 14.2 76.5 M 15.05 76.5 L 32.3 59.2 49.55 76.5 32.3 93.7 15.05 76.5 M 67.25 58.75 L 50 76 32.75 58.75 50 41.5 67.25 58.75 M 50 76.9 L 67.25 94.15 61.95 99.45 38.05 99.45 32.75 94.15 50 76.9 M 67.7 93.7 L 50.45 76.5 67.7 59.2 84.95 76.5 67.7 93.7 M 72.55 99.45 L 62.75 99.45 67.7 94.55 72.55 99.45 M 37.25 99.45 L 27.45 99.45 32.3 94.55 37.25 99.45 Z"/>
</g><mask id="mask">
<path fill="#FFFFFF" stroke="none" d=" M 99.75 7.9 Q 99.75 4.75 97.5 2.5 95.25 0.25 92.1 0.25 L 79.95 0.25 80.05 0.3 79.9 0.25 9.2 0.25 9.45 0.45 9.15 0.25 7.9 0.25 Q 4.75 0.25 2.5 2.5 0.25 4.75 0.25 7.9 L 0.25 62.05 0.35 62.25 0.25 62.15 0.25 92.1 Q 0.25 95.25 2.5 97.5 4.75 99.75 7.9 99.75 L 37.85 99.75 37.8 99.65 37.95 99.75 92.1 99.75 Q 95.25 99.75 97.5 97.5 99.75 95.25 99.75 92.1 L 99.75 90.85 99.5 90.55 99.75 90.8 99.75 20.1 99.65 19.95 99.75 20.05 99.75 7.9 Z"/>
</mask>
			
	<linearGradient id="background-gradient" x1="0" y1="0" y2="1" x2="0" >
		<stop stop-color="#800000" offset="0%"/>
		<stop stop-color="#250858" offset="100%"/>
	</linearGradient>

			
			
	<filter id="drop-shadow">
		<feGaussianBlur in="SourceAlpha" stdDeviation="0" />
		<feComponentTransfer>
			<feFuncA type="linear" slope="0.9"/>
		</feComponentTransfer>
		<feOffset dx="-0.9999999999999999" dy="1" result="offsetblur" />
		<feFlood flood-color="#000" />
		<feComposite in2="offsetblur" operator="in" />
		<feMerge>
			<feMergeNode />
			<feMergeNode in="SourceGraphic" />
		</feMerge>
	</filter>

			<g transform="scale(3.3272331604862884) translate(-2.9819998741149902 3.0445005893707275)" id="picture"><path d="M20 4.45c-.015-.173-.12-.326-.273-.403l-3.658-1.83.92-4.624c.04-.206-.05-.416-.23-.525-.18-.108-.41-.093-.57.037L11.5.855l-4.688-3.75c-.164-.13-.393-.145-.572-.037-.18.11-.272.32-.23.525l.925 4.625-3.66 1.83c-.157.077-.26.23-.276.4-.017.174.06.342.197.446l3.75 2.81-.94 4.692c-.04.206.05.416.23.525s.41.1.573-.03l4.69-3.75 4.69 3.75c.094.07.205.11.316.11h.01c.29-.005.51-.22.51-.5 0-.084-.02-.163-.056-.23l-.91-4.56 3.747-2.81c.138-.104.213-.272.197-.445z M11.533-2.006c-.276 0-.505-.224-.505-.5s.22-.5.495-.5h.01c.276 0 .5.224.5.5s-.224.5-.5.5zm7 4c-.276 0-.505-.224-.505-.5s.22-.5.495-.5h.01c.276 0 .5.224.5.5s-.224.5-.5.5zm-15 0c-.276 0-.505-.224-.505-.5s.22-.5.495-.5h.01c.276 0 .5.224.5.5s-.224.5-.5.5zm8 11c-.276 0-.505-.224-.505-.5s.22-.5.495-.5h.01c.276 0 .5.224.5.5s-.224.5-.5.5zm-8-4c-.276 0-.505-.224-.505-.5s.22-.5.495-.5h.01c.276 0 .5.224.5.5s-.224.5-.5.5zm21.97 7.793L18.406 9.69c-.156-.156-.396-.19-.59-.087-.193.104-.297.323-.253.54l.412 2.058c.096.48-.062.99-.422 1.35-.195.196-.195.51 0 .708l5.244 5.245 2.706-2.71zm6.354 6.353l-5.646-5.645-2.7 2.707 6.147 6.146c.443.442.878.658 1.328.658.457 0 .9-.222 1.325-.65.446-.37.673-.765.694-1.206.032-.68-.43-1.294-1.14-2.01z"/></g>
			
	<linearGradient id="picture-gradient" x1="0" y1="0" y2="1" x2="0" >
		<stop stop-color="#ffffff" offset="0%"/>
		<stop stop-color="#f8cec7" offset="100%"/>
	</linearGradient>

		</defs>

		

			<use xlink:href="#background" fill="url(#background-gradient)" />

		<use xlink:href="#middle-1" /><use xlink:href="#middle-2" />

			<g mask="url(#mask)">
				<g transform="
				        translate(
                                50 50
)
                            translate(25 25)  scale(1.15)  
                            translate(
                                -50 -50
)">
					<g filter="url(#drop-shadow)">
						<use xlink:href="#picture" fill="url(#picture-gradient)"  />
					</g>
				</g>
			</g>

		



	</svg>
